<svg width="52" height="52" viewBox="0 0 52 52" fill="none" xmlns="http://www.w3.org/2000/svg">
<g clip-path="url(#clip0_100_4)">
<path d="M31.9267 25.9405H51.6941C51.8622 25.9405 52 26.078 52 26.2464V51.6314C52 51.8012 51.8608 51.9404 51.6909 51.9388C37.5851 51.7752 26.1797 40.3778 26.0008 26.277V51.6941C26.0008 51.8625 25.8631 52 25.6947 52H0.309065C0.139226 52 0 51.8608 0.00146774 51.6909C0.166694 37.4738 11.7419 26.0017 25.9992 26H0.305919C0.137758 26 0 25.8625 0 25.6941V0.309065C0 0.139226 0.139226 0 0.309065 0.00167742C14.4149 0.165226 25.8203 11.5627 25.9992 25.6635V0.306129C25.9992 0.137758 26.1369 0 26.3053 0H51.6909C51.8608 0 52 0.139226 51.9985 0.309065C51.8562 12.5173 43.2999 22.7028 31.858 25.3376C31.5045 25.4186 31.5642 25.9405 31.9284 25.9405H31.9267Z" fill="url(#paint0_linear_100_4)"/>
</g>
<defs>
<linearGradient id="paint0_linear_100_4" x1="-2.25891e-07" y1="-0.917218" x2="35.224" y2="52.0752" gradientUnits="userSpaceOnUse">
<stop stop-color="#F06B58"/>
<stop offset="0.205171" stop-color="#F19542"/>
<stop offset="0.345371" stop-color="#F27E4C"/>
<stop offset="0.53678" stop-color="#E96178"/>
<stop offset="0.706731" stop-color="#E96D97"/>
<stop offset="1" stop-color="#C97BC0"/>
</linearGradient>
<clipPath id="clip0_100_4">
<rect width="52" height="52" fill="white"/>
</clipPath>
</defs>
</svg>
